<svg width="244" height="180" viewBox="0 0 244 180" fill="none" xmlns="http://www.w3.org/2000/svg">
<g clip-path="url(#clip0_54:5)">
<rect width="244" height="180" rx="2" fill="white" fill-opacity="0.05"/>
<path d="M242.648 10.6723H1.35158C0.993239 10.6719 0.649687 10.5291 0.396301 10.2753C0.142915 10.0214 0.000391669 9.67728 0 9.31831V1.35396C0.000391669 0.99499 0.142915 0.650833 0.396301 0.397002C0.649687 0.143171 0.993239 0.000399181 1.35158 7.62939e-06H242.648C243.007 0.000399988 243.35 0.143175 243.604 0.397006C243.857 0.650837 244 0.994991 244 1.35396V9.31832C244 9.67729 243.857 10.0214 243.604 10.2753C243.35 10.5291 243.007 10.6719 242.648 10.6723Z" fill="#2F27AE"/>
<path d="M7.8438 6.86994C8.90358 6.86994 9.76271 6.00931 9.76271 4.94766C9.76271 3.88601 8.90358 3.02538 7.8438 3.02538C6.78402 3.02538 5.9249 3.88601 5.9249 4.94766C5.9249 6.00931 6.78402 6.86994 7.8438 6.86994Z" fill="white"/>
<path d="M15.1273 6.86994C16.1871 6.86994 17.0462 6.00931 17.0462 4.94766C17.0462 3.88601 16.1871 3.02538 15.1273 3.02538C14.0675 3.02538 13.2084 3.88601 13.2084 4.94766C13.2084 6.00931 14.0675 6.86994 15.1273 6.86994Z" fill="white"/>
<path d="M22.4112 6.86994C23.471 6.86994 24.3301 6.00931 24.3301 4.94766C24.3301 3.88601 23.471 3.02538 22.4112 3.02538C21.3514 3.02538 20.4923 3.88601 20.4923 4.94766C20.4923 6.00931 21.3514 6.86994 22.4112 6.86994Z" fill="white"/>
<path d="M235.512 3.62459H227.125C226.96 3.62422 226.803 3.55849 226.686 3.44181C226.57 3.32513 226.505 3.16704 226.505 3.00221C226.505 2.83739 226.57 2.6793 226.686 2.56262C226.803 2.44594 226.96 2.38021 227.125 2.37984H235.512C235.677 2.37973 235.835 2.44508 235.951 2.56156C236.068 2.67804 236.134 2.83611 236.134 3.00105C236.134 3.16598 236.069 3.3243 235.953 3.44122C235.837 3.55813 235.679 3.62408 235.514 3.62459H235.512Z" fill="white"/>
<path d="M235.512 5.95848H227.125C226.96 5.95811 226.803 5.89238 226.686 5.7757C226.57 5.65902 226.505 5.50093 226.505 5.33611C226.505 5.17129 226.57 5.01319 226.686 4.89651C226.803 4.77984 226.96 4.7141 227.125 4.71374H235.512C235.677 4.71362 235.835 4.77898 235.951 4.89545C236.068 5.01193 236.134 5.17 236.134 5.33494C236.134 5.49988 236.069 5.65819 235.953 5.77511C235.837 5.89202 235.679 5.95797 235.514 5.95848H235.512Z" fill="white"/>
<path d="M235.512 8.29237H227.125C226.96 8.29237 226.802 8.2268 226.686 8.11008C226.569 7.99337 226.504 7.83507 226.504 7.67C226.504 7.50494 226.569 7.34664 226.686 7.22992C226.802 7.1132 226.96 7.04763 227.125 7.04763H235.512C235.677 7.04732 235.835 7.11259 235.952 7.22909C236.068 7.34559 236.134 7.50377 236.135 7.66883C236.135 7.8339 236.07 7.99232 235.953 8.10926C235.837 8.22619 235.679 8.29206 235.514 8.29237H235.512Z" fill="white"/>
<path d="M68.8026 158.264C69.6905 151.112 74.1153 144.065 80.9244 141.737C78.2391 149.099 78.2397 157.175 80.9261 164.536C81.9724 167.371 83.4308 170.416 82.4466 173.273C81.8342 175.051 80.3362 176.411 78.6617 177.262C76.9872 178.113 75.1287 178.518 73.2935 178.915L72.9324 179.214C70.019 172.624 67.9147 165.416 68.8026 158.264Z" fill="#544BE6"/>
<path d="M80.992 141.873C77.0267 146.323 74.5621 151.913 73.9484 157.847C73.7936 159.122 73.8405 160.413 74.0872 161.674C74.3671 162.894 74.9681 164.017 75.8277 164.925C76.6121 165.789 77.5144 166.581 78.0757 167.62C78.3551 168.157 78.5182 168.746 78.5543 169.35C78.5904 169.954 78.4986 170.559 78.285 171.124C77.7895 172.548 76.8127 173.709 75.8182 174.811C74.714 176.034 73.5476 177.287 73.0782 178.909C73.0214 179.105 72.7204 179.005 72.7771 178.809C73.5938 175.987 76.3278 174.385 77.6317 171.844C78.2401 170.658 78.4955 169.281 77.9251 168.029C77.4263 166.935 76.4967 166.117 75.6948 165.25C74.8433 164.376 74.2184 163.306 73.8747 162.134C73.5648 160.89 73.4683 159.603 73.5896 158.326C73.8168 155.449 74.4943 152.625 75.5972 149.958C76.839 146.908 78.5927 144.093 80.7822 141.634C80.9178 141.482 81.1267 141.722 80.992 141.873L80.992 141.873Z" fill="#6C63FF"/>
<path d="M74.0338 155.924C73.0539 155.686 72.1905 155.106 71.5978 154.289C71.0051 153.472 70.7216 152.471 70.798 151.463C70.8015 151.422 70.8207 151.384 70.8517 151.357C70.8827 151.33 70.9229 151.316 70.964 151.318C71.0051 151.32 71.0438 151.338 71.0719 151.368C71.1 151.398 71.1154 151.438 71.1148 151.479C71.0419 152.417 71.3061 153.35 71.8596 154.11C72.4131 154.87 73.2194 155.406 74.1332 155.623C74.3317 155.67 74.2311 155.971 74.0338 155.924Z" fill="#6C63FF"/>
<path d="M75.3724 164.54C77.1421 163.481 78.4485 161.794 79.0311 159.813C79.0887 159.617 79.3897 159.716 79.3322 159.913C78.7221 161.972 77.359 163.726 75.515 164.824C75.3391 164.928 75.1975 164.644 75.3724 164.54Z" fill="#6C63FF"/>
<path d="M77.1332 147.209C77.4931 147.38 77.8899 147.459 78.2879 147.439C78.6859 147.419 79.0727 147.3 79.4135 147.093C79.5879 146.986 79.7294 147.27 79.5561 147.376C79.1785 147.603 78.7512 147.734 78.3115 147.758C77.8719 147.781 77.4332 147.696 77.0338 147.51C76.9947 147.496 76.9625 147.467 76.9438 147.43C76.925 147.393 76.9212 147.35 76.9329 147.31C76.9463 147.27 76.9748 147.237 77.0123 147.218C77.0498 147.199 77.0933 147.196 77.1332 147.209Z" fill="#6C63FF"/>
<path d="M101.68 154.512C101.572 154.582 101.465 154.652 101.358 154.724C99.9243 155.669 98.5693 156.728 97.3066 157.893C97.2076 157.981 97.1085 158.072 97.0122 158.164C93.9999 161.002 91.5398 164.375 89.7569 168.113C89.0488 169.601 88.4548 171.14 87.9799 172.718C87.3242 174.898 86.7863 177.314 85.4883 179.096C85.355 179.284 85.2102 179.463 85.0547 179.633H73.3248C73.2981 179.619 73.2713 179.608 73.2445 179.595L72.7762 179.617C72.795 179.533 72.8163 179.448 72.8351 179.365C72.8458 179.316 72.8592 179.268 72.8699 179.22C72.8779 179.188 72.886 179.155 72.8913 179.126C72.8939 179.115 72.8967 179.104 72.8993 179.096C72.9047 179.067 72.9128 179.04 72.9181 179.013C73.0358 178.533 73.1572 178.054 73.282 177.574C73.282 177.571 73.282 177.571 73.2847 177.568C74.2013 173.902 75.5489 170.358 77.299 167.011C77.3526 166.912 77.406 166.81 77.465 166.71C78.2754 165.228 79.2054 163.815 80.2456 162.485C80.8175 161.759 81.4258 161.062 82.0681 160.397C83.7311 158.682 85.6529 157.24 87.7631 156.123C91.9702 153.898 96.8409 153.046 101.337 154.405C101.452 154.44 101.565 154.475 101.68 154.512Z" fill="#544BE6"/>
<path d="M101.653 154.661C95.8121 155.823 90.485 158.8 86.4287 163.167C85.5388 164.092 84.8 165.152 84.2394 166.307C83.7296 167.45 83.5347 168.709 83.6748 169.953C83.7823 171.115 84.0266 172.292 83.85 173.46C83.7508 174.057 83.5268 174.626 83.1926 175.13C82.8585 175.634 82.4218 176.062 81.9111 176.385C80.6597 177.223 79.1823 177.56 77.7261 177.84C76.1092 178.151 74.4249 178.448 73.0755 179.459C72.912 179.582 72.7317 179.321 72.8949 179.198C75.2427 177.438 78.3889 177.807 80.9573 176.565C82.1557 175.985 83.187 175.04 83.4839 173.696C83.7435 172.522 83.4926 171.308 83.3737 170.132C83.2192 168.92 83.3632 167.689 83.7931 166.546C84.2931 165.366 84.99 164.28 85.8538 163.334C87.7647 161.174 90.0028 159.328 92.4861 157.864C95.3111 156.177 98.4032 154.987 101.629 154.345C101.828 154.305 101.851 154.622 101.653 154.661H101.653Z" fill="#6C63FF"/>
<path d="M87.6522 161.684C87.0131 160.903 86.672 159.919 86.6898 158.91C86.7077 157.9 87.0833 156.929 87.7496 156.171C87.8849 156.018 88.1285 156.221 87.993 156.375C87.3712 157.079 87.0214 157.984 87.0067 158.924C86.992 159.865 87.3134 160.779 87.9128 161.503C88.0429 161.661 87.7815 161.841 87.6522 161.684Z" fill="#6C63FF"/>
<path d="M83.5429 169.371C85.5921 169.593 87.6496 169.033 89.3052 167.803C89.4691 167.681 89.6495 167.942 89.4858 168.064C87.7606 169.341 85.6182 169.919 83.4863 169.683C83.2831 169.66 83.3408 169.348 83.5429 169.371Z" fill="#6C63FF"/>
<path d="M95.3651 156.595C95.5495 156.948 95.8188 157.251 96.1488 157.475C96.4787 157.699 96.859 157.837 97.2555 157.877C97.4589 157.897 97.4009 158.21 97.1989 158.19C96.761 158.143 96.3412 157.99 95.9761 157.743C95.611 157.497 95.3118 157.165 95.1045 156.775C95.0819 156.74 95.0734 156.698 95.0809 156.657C95.0883 156.616 95.1111 156.579 95.1445 156.554C95.1792 156.531 95.2218 156.521 95.2631 156.529C95.3044 156.537 95.3411 156.56 95.3651 156.595L95.3651 156.595Z" fill="#6C63FF"/>
<path d="M79.0876 55.5316H40.2794C39.0801 55.5302 37.9304 55.0524 37.0824 54.2028C36.2344 53.3533 35.7574 52.2015 35.7561 51.0002V29.8261C35.7574 28.6248 36.2344 27.473 37.0824 26.6236C37.9304 25.7741 39.0802 25.2963 40.2794 25.295H79.0876C80.2869 25.2963 81.4366 25.7741 82.2846 26.6236C83.1326 27.473 83.6096 28.6248 83.611 29.8261V51.0001C83.6096 52.2015 83.1327 53.3533 82.2847 54.2028C81.4367 55.0524 80.2869 55.5302 79.0876 55.5316Z" fill="#544BE6"/>
<path d="M138.337 55.5316H99.5283C98.3291 55.5302 97.1793 55.0524 96.3313 54.2028C95.4833 53.3533 95.0063 52.2015 95.005 51.0002V29.8261C95.0063 28.6248 95.4833 27.473 96.3313 26.6236C97.1793 25.7741 98.3291 25.2963 99.5283 25.295H138.337C139.536 25.2963 140.686 25.7741 141.534 26.6236C142.382 27.473 142.859 28.6248 142.86 29.8261V51.0001C142.859 52.2015 142.382 53.3533 141.534 54.2028C140.686 55.0524 139.536 55.5302 138.337 55.5316Z" fill="#2F27AE"/>
<path d="M197.586 55.5316H158.777C157.578 55.5302 156.428 55.0524 155.58 54.2028C154.732 53.3533 154.255 52.2015 154.254 51.0002V29.8261C154.255 28.6248 154.732 27.473 155.58 26.6236C156.428 25.7741 157.578 25.2963 158.777 25.295H197.586C198.785 25.2963 199.935 25.7741 200.783 26.6236C201.631 27.473 202.108 28.6248 202.109 29.8261V51.0001C202.108 52.2015 201.631 53.3533 200.783 54.2028C199.935 55.0524 198.785 55.5302 197.586 55.5316Z" fill="#544BE6"/>
<path d="M79.0876 102.71H40.2794C39.0801 102.708 37.9304 102.231 37.0824 101.381C36.2344 100.532 35.7574 99.3797 35.7561 98.1783V77.0043C35.7574 75.803 36.2344 74.6512 37.0824 73.8017C37.9304 72.9523 39.0802 72.4745 40.2794 72.4731H79.0876C80.2869 72.4745 81.4366 72.9523 82.2846 73.8017C83.1326 74.6512 83.6096 75.803 83.611 77.0043V98.1783C83.6096 99.3797 83.1327 100.531 82.2847 101.381C81.4367 102.231 80.2869 102.708 79.0876 102.71Z" fill="#544BE6"/>
<path d="M138.337 102.71H99.5283C98.3291 102.708 97.1793 102.231 96.3313 101.381C95.4833 100.532 95.0063 99.3797 95.005 98.1783V77.0043C95.0063 75.803 95.4833 74.6512 96.3313 73.8017C97.1793 72.9523 98.3291 72.4745 99.5283 72.4731H138.337C139.536 72.4745 140.686 72.9523 141.534 73.8017C142.382 74.6512 142.859 75.8029 142.86 77.0043V98.1783C142.859 99.3797 142.382 100.531 141.534 101.381C140.686 102.231 139.536 102.708 138.337 102.71Z" fill="#544BE6"/>
<path d="M141.077 106.606C144.905 106.606 148.008 103.497 148.008 99.6625C148.008 95.8278 144.905 92.7191 141.077 92.7191C137.249 92.7191 134.145 95.8278 134.145 99.6625C134.145 103.497 137.249 106.606 141.077 106.606Z" fill="#2F27AE"/>
<path d="M143.955 99.0795H141.598V96.7187C141.598 96.6458 141.584 96.5735 141.556 96.5061C141.528 96.4387 141.487 96.3775 141.436 96.3259C141.384 96.2743 141.323 96.2334 141.256 96.2055C141.189 96.1776 141.117 96.1632 141.044 96.1632C140.971 96.1632 140.899 96.1776 140.832 96.2055C140.764 96.2334 140.703 96.2743 140.652 96.3259C140.6 96.3775 140.559 96.4387 140.532 96.5061C140.504 96.5735 140.489 96.6458 140.489 96.7187V99.0795H138.133C138.06 99.0795 137.988 99.0939 137.92 99.1218C137.853 99.1497 137.792 99.1906 137.741 99.2422C137.689 99.2938 137.648 99.355 137.62 99.4224C137.593 99.4898 137.578 99.5621 137.578 99.635C137.578 99.708 137.593 99.7802 137.62 99.8476C137.648 99.915 137.689 99.9762 137.741 100.028C137.792 100.079 137.853 100.12 137.92 100.148C137.988 100.176 138.06 100.191 138.133 100.191H140.489V102.551C140.489 102.624 140.504 102.697 140.532 102.764C140.559 102.831 140.6 102.893 140.652 102.944C140.703 102.996 140.764 103.037 140.832 103.065C140.899 103.092 140.971 103.107 141.044 103.107C141.191 103.107 141.332 103.048 141.436 102.944C141.54 102.84 141.598 102.699 141.598 102.551V100.191H143.955C144.028 100.191 144.1 100.176 144.167 100.148C144.235 100.12 144.296 100.079 144.347 100.028C144.399 99.9762 144.439 99.915 144.467 99.8476C144.495 99.7802 144.51 99.7079 144.51 99.635C144.51 99.562 144.495 99.4898 144.467 99.4224C144.439 99.355 144.399 99.2938 144.347 99.2422C144.296 99.1906 144.235 99.1497 144.167 99.1218C144.1 99.0938 144.028 99.0795 143.955 99.0795L143.955 99.0795Z" fill="white"/>
<path d="M201.237 60.6454C205.065 60.6454 208.169 57.5367 208.169 53.7019C208.169 49.8671 205.065 46.7584 201.237 46.7584C197.409 46.7584 194.306 49.8671 194.306 53.7019C194.306 57.5367 197.409 60.6454 201.237 60.6454Z" fill="#2F27AE"/>
<path d="M204.115 53.1188H201.759V50.758C201.759 50.6851 201.745 50.6128 201.717 50.5454C201.689 50.478 201.648 50.4168 201.596 50.3652C201.545 50.3136 201.484 50.2727 201.417 50.2448C201.349 50.2169 201.277 50.2025 201.204 50.2025C201.131 50.2025 201.059 50.2169 200.992 50.2448C200.925 50.2727 200.864 50.3136 200.812 50.3652C200.761 50.4168 200.72 50.478 200.692 50.5454C200.664 50.6128 200.65 50.6851 200.65 50.758V53.1188H198.293C198.22 53.1188 198.148 53.1332 198.081 53.1611C198.014 53.189 197.953 53.2299 197.901 53.2815C197.85 53.3331 197.809 53.3943 197.781 53.4617C197.753 53.5291 197.739 53.6013 197.739 53.6743C197.739 53.7472 197.753 53.8195 197.781 53.8869C197.809 53.9543 197.85 54.0155 197.901 54.0671C197.953 54.1187 198.014 54.1596 198.081 54.1875C198.148 54.2154 198.22 54.2298 198.293 54.2298H200.65V56.5906C200.65 56.6635 200.664 56.7358 200.692 56.8032C200.72 56.8706 200.761 56.9318 200.812 56.9834C200.864 57.035 200.925 57.0759 200.992 57.1038C201.059 57.1317 201.132 57.1461 201.204 57.1461C201.351 57.1461 201.492 57.0876 201.596 56.9834C201.7 56.8792 201.759 56.7379 201.759 56.5906V54.2298H204.115C204.188 54.2298 204.26 54.2154 204.328 54.1875C204.395 54.1596 204.456 54.1187 204.508 54.0671C204.559 54.0155 204.6 53.9543 204.628 53.8869C204.656 53.8195 204.67 53.7472 204.67 53.6743C204.67 53.6013 204.656 53.5291 204.628 53.4617C204.6 53.3943 204.559 53.3331 204.508 53.2815C204.456 53.2299 204.395 53.189 204.328 53.1611C204.26 53.1331 204.188 53.1188 204.115 53.1188L204.115 53.1188Z" fill="white"/>
<path d="M81.8278 60.0366C85.6559 60.0366 88.7591 56.9279 88.7591 53.0931C88.7591 49.2583 85.6559 46.1496 81.8278 46.1496C77.9998 46.1496 74.8965 49.2583 74.8965 53.0931C74.8965 56.9279 77.9998 60.0366 81.8278 60.0366Z" fill="#2F27AE"/>
<path d="M84.7061 52.51H82.3494V50.1493C82.3494 50.0763 82.3351 50.0041 82.3072 49.9367C82.2794 49.8693 82.2385 49.808 82.187 49.7565C82.1355 49.7049 82.0744 49.664 82.0071 49.636C81.9398 49.6081 81.8677 49.5938 81.7949 49.5938C81.7221 49.5937 81.65 49.6081 81.5827 49.636C81.5154 49.664 81.4543 49.7049 81.4028 49.7565C81.3513 49.808 81.3104 49.8693 81.2826 49.9367C81.2547 50.0041 81.2404 50.0763 81.2404 50.1493V52.51H78.8837C78.8109 52.51 78.7388 52.5244 78.6715 52.5523C78.6042 52.5802 78.5431 52.6212 78.4916 52.6727C78.4401 52.7243 78.3993 52.7856 78.3714 52.853C78.3435 52.9204 78.3292 52.9926 78.3292 53.0656C78.3292 53.2129 78.3876 53.3542 78.4916 53.4584C78.5956 53.5625 78.7367 53.6211 78.8837 53.6211H81.2404V55.9818C81.2404 56.0548 81.2547 56.127 81.2826 56.1944C81.3104 56.2618 81.3513 56.3231 81.4028 56.3747C81.4543 56.4262 81.5154 56.4672 81.5827 56.4951C81.65 56.523 81.7221 56.5374 81.7949 56.5374C81.8677 56.5374 81.9398 56.523 82.0071 56.4951C82.0744 56.4672 82.1355 56.4262 82.187 56.3747C82.2385 56.3231 82.2794 56.2618 82.3072 56.1944C82.3351 56.127 82.3494 56.0548 82.3494 55.9819V53.6211H84.7061C84.7789 53.6211 84.851 53.6067 84.9183 53.5788C84.9856 53.5509 85.0467 53.5099 85.0982 53.4583C85.1497 53.4068 85.1905 53.3455 85.2184 53.2781C85.2463 53.2107 85.2606 53.1385 85.2606 53.0655C85.2606 52.9182 85.2022 52.7769 85.0982 52.6727C84.9942 52.5686 84.8531 52.51 84.7061 52.51V52.51Z" fill="white"/>
<path d="M133.721 43.5013C133.847 43.8844 133.888 44.2907 133.841 44.6915C133.794 45.0923 133.66 45.4779 133.447 45.821C133.235 46.1642 132.951 46.4565 132.614 46.6776C132.277 46.8986 131.895 47.0429 131.497 47.1004L128.292 69.0156L123.034 66.4433L128.322 44.5678C128.27 43.8903 128.468 43.2173 128.879 42.6763C129.289 42.1353 129.883 41.7638 130.549 41.6324C131.214 41.5009 131.905 41.6186 132.489 41.963C133.074 42.3075 133.512 42.8548 133.721 43.5013L133.721 43.5013Z" fill="#E59AA5"/>
<path d="M95.4411 113.69C95.6751 113.362 95.8344 112.986 95.9077 112.589C95.9811 112.192 95.9666 111.784 95.8655 111.393C95.7643 111.003 95.5789 110.639 95.3223 110.328C95.0656 110.017 94.744 109.766 94.3801 109.593L96.5423 86.2818L92.0136 88.6072L90.5995 111.07C90.3497 111.702 90.34 112.404 90.572 113.042C90.8041 113.681 91.2619 114.212 91.8587 114.534C92.4555 114.857 93.1498 114.95 93.81 114.794C94.4703 114.639 95.0506 114.246 95.441 113.69H95.4411Z" fill="#E59AA5"/>
<path d="M98.5349 101.9L117.969 101.151L119.09 80.9343H96.6663L98.5349 101.9Z" fill="#E59AA5"/>
<path d="M94.928 173.298L98.249 173.297L99.8287 160.466H94.9274L94.928 173.298Z" fill="#E59AA5"/>
<path d="M94.1043 171.656L99.3539 171.343V173.596L104.345 177.049C104.591 177.219 104.777 177.464 104.875 177.748C104.973 178.032 104.977 178.339 104.888 178.626C104.799 178.912 104.621 179.163 104.379 179.341C104.138 179.518 103.846 179.614 103.547 179.614H97.2967L96.2194 177.386L95.7988 179.614H93.4423L94.1043 171.656Z" fill="#2F2E41"/>
<path d="M109.699 173.298L113.02 173.297L114.6 160.466H109.698L109.699 173.298Z" fill="#E59AA5"/>
<path d="M98.2653 97.1541C98.2653 97.1541 92.4505 101.857 95.6027 118.652C95.1227 118.709 95.6662 119.657 95.6662 119.657L96.1211 133.341L96.4726 134.91L95.304 137.441L95.7857 140.19L94.3006 165.147L99.7871 165.857L105.037 139.942L106.037 137.028L107.04 134.474L106.499 131.751L106.943 127.523L109.97 113.27L110.711 137.991L109.677 140.351L110.252 142.941L108.97 144.317L108.464 167.446L114.314 167.72L119.154 144.404L118.779 141.429L119.423 139.229V134.09L120.526 131.665L122.931 118.44C122.931 118.44 123.656 108.104 118.363 95.9412L98.2653 97.1541Z" fill="#2F2E41"/>
<path d="M100.635 64.1321C100.635 64.1321 93.2908 65.5872 92.0253 71.8617C90.7598 78.1361 89.9456 92.3348 89.9456 92.3348L90.2228 94.3121L97.3271 95.9624L101.861 76.0676L100.635 64.1321Z" fill="#3F3D56"/>
<path d="M117.396 66.25C117.396 66.25 118.14 65.205 122.309 65.0438C122.481 65.0372 122.268 64.696 122.268 64.696L124.273 54.8791L130.955 58.585L129.827 68.8768L118.848 81.3868L117.396 66.25Z" fill="#3F3D56"/>
<path d="M113.231 95.516C110.086 95.5162 105.351 95.1685 98.2227 94.1084C97.7636 94.039 97.3386 93.8244 97.0099 93.4959C96.6812 93.1674 96.4659 92.7422 96.3955 92.2825C96.1627 92.0363 96.0113 91.7242 95.9617 91.3888C95.9122 91.0533 95.967 90.7107 96.1186 90.4075L96.1252 90.3945L95.9637 90.2038C95.7139 89.9098 95.5672 89.542 95.546 89.1566C95.5248 88.7711 95.6302 88.3894 95.8462 88.0697L93.6387 72.2498C93.4147 70.6789 93.7576 69.0794 94.6057 67.7391C95.4539 66.3987 96.7516 65.4056 98.2655 64.9383L99.0804 64.6841L102.162 60.6461L102.223 60.6468L112.116 60.7788L115.327 64.863L120.517 66.0889L120.53 66.168L121.735 73.1424C122.362 76.7699 120.924 78.1969 119.09 81.3868L119.628 90.3459L119.873 90.7906C120.008 91.0367 120.054 91.3226 120.001 91.5987C119.948 91.8748 119.801 92.1238 119.585 92.3026C119.748 92.7713 119.76 93.2798 119.617 93.7552L119.49 94.1755C119.49 94.1876 119.456 94.3583 119.182 94.5668C118.688 94.9427 117.269 95.516 113.231 95.516Z" fill="#3F3D56"/>
<path d="M108.875 171.656L114.125 171.343V173.596L119.116 177.049C119.362 177.219 119.548 177.464 119.646 177.748C119.744 178.032 119.748 178.339 119.659 178.626C119.57 178.912 119.392 179.163 119.15 179.341C118.909 179.518 118.617 179.614 118.318 179.614H112.068L110.99 177.386L110.57 179.614H108.213L108.875 171.656Z" fill="#2F2E41"/>
<path d="M114.389 51.8465C115.075 47.6109 112.204 43.62 107.975 42.9326C103.747 42.2453 99.7633 45.1218 99.0771 49.3574C98.391 53.5931 101.262 57.584 105.491 58.2713C109.719 58.9587 113.703 56.0822 114.389 51.8465Z" fill="#E69AA5"/>
<path d="M111.268 43.01C108.426 41.0515 105.922 40.7532 103.866 41.3087C103.599 40.8956 103.226 40.5631 102.785 40.3468C101.181 36.2986 96.3001 33.8674 92.1116 35.0492C87.896 36.2387 84.9873 40.9166 85.7805 45.2314C86.2721 47.906 87.9523 50.222 88.6282 52.8558C89.9364 57.9546 86.745 63.7952 81.7525 65.4387C86.4795 66.3895 91.6828 63.4971 93.3786 58.9758C94.2023 56.7797 94.252 54.382 94.3567 52.0384C94.3842 50.4208 94.5821 48.8105 94.9469 47.2345C95.128 46.5274 95.3838 45.8417 95.7101 45.189C96.4208 43.7542 97.6011 42.6071 99.0541 41.9389C98.924 42.342 98.8915 42.7704 98.9592 43.1886C99.0269 43.6068 99.193 44.0029 99.4436 44.3442C98.3351 45.7354 97.7316 47.2398 97.7316 48.1408C95.4287 52.3572 98.7219 55.9789 102.931 58.2858C104.61 59.2108 106.548 59.5493 108.44 59.248L108.617 58.495L108.855 59.1733L109.652 61.4473C110.57 61.8926 111.481 62.3807 112.384 62.9116C112.041 61.2979 111.764 59.6873 111.573 58.1125C111.308 55.9691 112.23 52.7781 112.895 50.8376C113.307 49.6417 113.518 48.3856 113.521 47.1203V47.065L114.168 49.1478L116.524 48.1408C116.086 45.6217 116.524 42.762 111.268 43.01Z" fill="#2F2E41"/>
<path d="M208.184 180H35.8165C35.7209 180 35.6293 179.961 35.5619 179.893C35.4944 179.825 35.4565 179.733 35.4565 179.638C35.4565 179.542 35.4944 179.45 35.5619 179.382C35.6293 179.314 35.7209 179.276 35.8165 179.275H208.184C208.279 179.276 208.371 179.314 208.438 179.382C208.506 179.45 208.543 179.542 208.543 179.638C208.543 179.733 208.506 179.825 208.438 179.893C208.371 179.961 208.279 180 208.184 180Z" fill="#544BE5"/>
<path d="M81.0355 107.518C84.8635 107.518 87.9668 104.41 87.9668 100.575C87.9668 96.7402 84.8635 93.6315 81.0355 93.6315C77.2074 93.6315 74.1042 96.7402 74.1042 100.575C74.1042 104.41 77.2074 107.518 81.0355 107.518Z" fill="#3E35D6"/>
<path d="M185.324 96.5844H161.013C160.262 96.5836 159.542 96.2842 159.01 95.752C158.479 95.2199 158.18 94.4983 158.179 93.7457V80.4814C158.18 79.7289 158.479 79.0074 159.01 78.4752C159.542 77.9431 160.262 77.6437 161.013 77.6429H185.324C186.076 77.6437 186.796 77.9431 187.327 78.4752C187.858 79.0073 188.157 79.7289 188.158 80.4814V93.7457C188.157 94.4983 187.858 95.2199 187.327 95.752C186.796 96.2842 186.076 96.5836 185.324 96.5844Z" fill="#544BE5"/>
<path d="M185.682 91.1965C187.715 91.1965 189.363 89.5456 189.363 87.5092C189.363 85.4727 187.715 83.8218 185.682 83.8218C183.65 83.8218 182.002 85.4727 182.002 87.5092C182.002 89.5456 183.65 91.1965 185.682 91.1965Z" fill="white"/>
<path d="M187.211 87.1995H185.959V85.9458C185.959 85.9071 185.952 85.8687 185.937 85.8329C185.922 85.7971 185.901 85.7646 185.873 85.7372C185.846 85.7098 185.813 85.6881 185.778 85.6733C185.742 85.6584 185.704 85.6508 185.665 85.6508C185.587 85.6508 185.512 85.6819 185.457 85.7372C185.401 85.7925 185.37 85.8676 185.37 85.9458V87.1995H184.119C184.041 87.1995 183.966 87.2306 183.911 87.2859C183.855 87.3413 183.824 87.4163 183.824 87.4945C183.824 87.5333 183.832 87.5716 183.847 87.6074C183.862 87.6432 183.883 87.6757 183.911 87.7031C183.938 87.7305 183.971 87.7523 184.006 87.7671C184.042 87.7819 184.08 87.7895 184.119 87.7895H185.37V89.0432C185.37 89.082 185.378 89.1203 185.393 89.1561C185.408 89.1919 185.429 89.2244 185.457 89.2518C185.484 89.2792 185.517 89.301 185.552 89.3158C185.588 89.3306 185.626 89.3382 185.665 89.3382C185.743 89.3382 185.818 89.3072 185.873 89.2518C185.928 89.1965 185.959 89.1215 185.959 89.0432V87.7895H187.211C187.289 87.7895 187.364 87.7585 187.419 87.7031C187.474 87.6478 187.505 87.5728 187.505 87.4945C187.505 87.4558 187.498 87.4174 187.483 87.3816C187.468 87.3459 187.447 87.3133 187.419 87.2859C187.392 87.2585 187.359 87.2368 187.324 87.222C187.288 87.2072 187.25 87.1995 187.211 87.1995L187.211 87.1995Z" fill="#544BE5"/>
<path d="M195.229 92.8202H175.194C174.344 92.8193 173.529 92.4805 172.927 91.8782C172.326 91.2758 171.988 90.4592 171.987 89.6074V77.6272C171.987 77.4704 172.05 77.3202 172.16 77.2095C172.271 77.0988 172.421 77.0366 172.578 77.0366C172.734 77.0366 172.884 77.0988 172.995 77.2095C173.106 77.3202 173.168 77.4704 173.169 77.6272V80.8356L196.44 82.9548C196.905 82.9631 197.348 83.1537 197.674 83.4857C198 83.8178 198.183 84.2647 198.183 84.7304C198.183 84.767 198.18 84.8035 198.173 84.8395L197 91.1049C196.984 91.565 196.791 92.0008 196.46 92.3207C196.13 92.6407 195.688 92.8197 195.229 92.8202ZM173.169 82.0243V89.6073C173.169 90.1453 173.383 90.661 173.763 91.0414C174.142 91.4218 174.657 91.6357 175.194 91.6364H195.229C195.386 91.6362 195.536 91.5738 195.646 91.4628C195.757 91.3518 195.82 91.2014 195.82 91.0444C195.82 91.0078 195.823 90.9713 195.83 90.9354L197 84.6847C196.988 84.5362 196.921 84.3974 196.812 84.2962C196.703 84.195 196.559 84.1386 196.411 84.1385C196.393 84.1385 196.375 84.1377 196.357 84.136L173.169 82.0243Z" fill="white"/>
<path d="M169.871 98.345C170.414 98.345 170.855 97.9033 170.855 97.3584C170.855 96.8136 170.414 96.3719 169.871 96.3719C169.327 96.3719 168.886 96.8136 168.886 97.3584C168.886 97.9033 169.327 98.345 169.871 98.345Z" fill="white"/>
<path d="M194.441 98.345C194.985 98.345 195.426 97.9033 195.426 97.3584C195.426 96.8136 194.985 96.3719 194.441 96.3719C193.897 96.3719 193.456 96.8136 193.456 97.3584C193.456 97.9033 193.897 98.345 194.441 98.345Z" fill="white"/>
<path d="M195.426 96.3719H169.083C168.926 96.3719 168.776 96.3095 168.665 96.1985C168.554 96.0875 168.492 95.9369 168.492 95.7799C168.492 95.6229 168.554 95.4724 168.665 95.3614C168.776 95.2504 168.926 95.188 169.083 95.188H195.426C195.582 95.188 195.733 95.2504 195.844 95.3614C195.954 95.4724 196.017 95.6229 196.017 95.7799C196.017 95.9369 195.954 96.0875 195.844 96.1985C195.733 96.3095 195.582 96.3719 195.426 96.3719Z" fill="white"/>
<path d="M174.154 78.0218H169.032C168.876 78.0215 168.726 77.9589 168.615 77.848C168.505 77.737 168.443 77.5866 168.443 77.4299C168.443 77.2731 168.505 77.1228 168.615 77.0118C168.726 76.9008 168.876 76.8383 169.032 76.8379H174.154C174.31 76.8383 174.46 76.9008 174.57 77.0118C174.681 77.1228 174.743 77.2731 174.743 77.4299C174.743 77.5866 174.681 77.737 174.57 77.848C174.46 77.9589 174.31 78.0215 174.154 78.0218Z" fill="white"/>
<path d="M178.262 96.0705C178.121 96.0706 177.984 96.0199 177.877 95.9275L173.993 92.584C173.934 92.5334 173.886 92.4717 173.85 92.4022C173.815 92.3328 173.794 92.2572 173.788 92.1796C173.782 92.102 173.791 92.0239 173.816 91.95C173.84 91.876 173.878 91.8075 173.929 91.7485C173.98 91.6895 174.041 91.641 174.111 91.6059C174.18 91.5708 174.256 91.5498 174.333 91.544C174.411 91.5382 174.489 91.5477 174.562 91.5721C174.636 91.5965 174.704 91.6352 174.763 91.6861L178.647 95.0296C178.739 95.1084 178.804 95.2134 178.834 95.3305C178.864 95.4475 178.858 95.571 178.816 95.6844C178.774 95.7978 178.698 95.8955 178.599 95.9645C178.5 96.0336 178.382 96.0705 178.262 96.0705V96.0705Z" fill="white"/>
<path d="M179.08 92.4566C179.003 92.4566 178.926 92.4413 178.854 92.4116C178.782 92.3819 178.717 92.3383 178.662 92.2833C178.607 92.2283 178.564 92.1631 178.534 92.0913C178.505 92.0195 178.489 91.9425 178.489 91.8648V82.3627C178.489 82.2057 178.552 82.0551 178.662 81.9441C178.773 81.8331 178.923 81.7707 179.08 81.7707C179.237 81.7707 179.387 81.8331 179.498 81.9441C179.609 82.0551 179.671 82.2057 179.671 82.3627V91.8647C179.671 91.9424 179.656 92.0194 179.626 92.0912C179.596 92.163 179.553 92.2283 179.498 92.2832C179.443 92.3382 179.378 92.3818 179.306 92.4116C179.235 92.4413 179.158 92.4566 179.08 92.4566H179.08Z" fill="white"/>
<path d="M191.562 92.4566C191.485 92.4566 191.408 92.4413 191.336 92.4116C191.265 92.3819 191.199 92.3383 191.145 92.2833C191.09 92.2283 191.046 92.1631 191.016 92.0913C190.987 92.0195 190.971 91.9425 190.971 91.8648V83.1519C190.972 82.9952 191.034 82.845 191.145 82.7342C191.256 82.6235 191.406 82.5613 191.562 82.5613C191.719 82.5613 191.869 82.6235 191.98 82.7342C192.09 82.845 192.153 82.9952 192.153 83.1519V91.8647C192.153 91.9424 192.138 92.0194 192.108 92.0912C192.079 92.163 192.035 92.2283 191.98 92.2833C191.925 92.3382 191.86 92.3818 191.789 92.4116C191.717 92.4413 191.64 92.4566 191.562 92.4566H191.562Z" fill="white"/>
</g>
<defs>
<clipPath id="clip0_54:5">
<rect width="244" height="180" rx="2" fill="white"/>
</clipPath>
</defs>
</svg>
